<svg width="186" height="64" viewBox="0 0 186 64" fill="none" xmlns="http://www.w3.org/2000/svg">
<g clip-path="url(#clip0_1843_2367)">
<path d="M8.58913 46.8803H25.7674L34.3565 31.9977L25.7674 17.1223H17.0781L14.2461 22.0212H22.9425L28.6996 31.9977L22.9425 41.9743H11.4212L5.65695 31.9977L10.0052 24.4742L17.5859 37.6046H23.2428L11.4212 17.1223H8.58913L0 31.9977L8.58913 46.8803Z" fill="#EA454A"/>
<path d="M51.2837 41.1024C50.0885 41.1169 48.8977 40.953 47.7508 40.6161C46.6423 40.2495 45.6202 39.6606 44.7471 38.8854C44.511 38.6908 44.3206 38.4466 44.1893 38.1702C44.0644 37.9267 43.9982 37.6573 43.9962 37.3836C43.9939 37.1743 44.0331 36.9667 44.1117 36.7727C44.1903 36.5787 44.3066 36.4023 44.4539 36.2536C44.602 36.0933 44.7826 35.9664 44.9836 35.8813C45.1846 35.7963 45.4014 35.7549 45.6196 35.7601C45.9661 35.758 46.3026 35.8769 46.5708 36.0963C47.2185 36.6364 47.9412 37.0796 48.7163 37.4122C49.5402 37.7347 50.4207 37.888 51.3052 37.8627C51.9558 37.8701 52.6024 37.7612 53.2147 37.5409C53.7519 37.3633 54.2413 37.0648 54.645 36.6684C54.8135 36.5077 54.9479 36.3147 55.04 36.1009C55.1322 35.8871 55.1803 35.6568 55.1814 35.424C55.192 34.9013 55.0115 34.3927 54.6736 33.9937C54.2476 33.5394 53.7174 33.1958 53.1288 32.9925C52.2777 32.6854 51.395 32.4743 50.497 32.3631C49.5829 32.2302 48.6875 31.9901 47.8295 31.6479C47.1211 31.3763 46.4689 30.9763 45.9057 30.4679C45.3971 30.0027 45.001 29.428 44.7471 28.7873C44.4796 28.104 44.3461 27.3756 44.3538 26.6418C44.3112 25.5458 44.6221 24.4652 45.2406 23.5594C45.8882 22.6812 46.7672 22.0003 47.7794 21.5927C48.8997 21.133 50.1014 20.9043 51.3123 20.9205C52.4626 20.9085 53.6065 21.0923 54.6951 21.464C55.6117 21.7658 56.4651 22.2337 57.2124 22.8443C57.4556 23.0091 57.6563 23.2292 57.798 23.4865C57.9397 23.7438 58.0184 24.031 58.0277 24.3247C58.0263 24.5342 57.9832 24.7414 57.9009 24.9342C57.8187 25.127 57.6989 25.3014 57.5486 25.4475C57.4083 25.6071 57.2355 25.7349 57.0419 25.8224C56.8483 25.91 56.6382 25.9553 56.4258 25.9552C56.16 25.9512 55.9023 25.8636 55.6891 25.7049C55.325 25.4102 54.9203 25.1694 54.4877 24.9898C53.9815 24.7445 53.458 24.5365 52.9214 24.3676C51.749 24.0345 50.5038 24.0594 49.3456 24.4391C48.8604 24.6033 48.4282 24.8947 48.0941 25.283C47.8185 25.6331 47.672 26.0675 47.6793 26.5131C47.657 27.023 47.8311 27.5221 48.1656 27.9076C48.5615 28.3124 49.0536 28.6102 49.5959 28.773C50.3213 29.0151 51.0619 29.2086 51.8129 29.3523C52.816 29.5181 53.8055 29.7572 54.7737 30.0674C55.5476 30.2964 56.2743 30.6621 56.9192 31.1473C57.4772 31.579 57.9134 32.1483 58.1851 32.7994C58.4846 33.5717 58.628 34.3957 58.607 35.2238C58.6347 36.3574 58.2766 37.4669 57.5915 38.3705C56.9014 39.263 55.9889 39.9585 54.9454 40.3873C53.7881 40.8787 52.5408 41.1223 51.2837 41.1024Z" fill="black"/>
<path d="M69.3269 25.533C70.4216 25.4626 71.5066 25.7762 72.3949 26.4198C73.1013 27.0215 73.6015 27.8293 73.8253 28.7298C74.0988 29.7779 74.2311 30.8578 74.2186 31.9409V39.114C74.2256 39.3386 74.1867 39.5622 74.1043 39.7713C74.022 39.9803 73.8978 40.1704 73.7394 40.3298C73.4183 40.6464 72.9854 40.8239 72.5344 40.8239C72.0834 40.8239 71.6505 40.6464 71.3293 40.3298C71.1723 40.1694 71.049 39.9792 70.9668 39.7704C70.8845 39.5616 70.8448 39.3384 70.8502 39.114V31.9624C70.8587 31.399 70.784 30.8375 70.6285 30.296C70.4915 29.8209 70.2058 29.4023 69.8132 29.1017C69.3151 28.7773 68.7258 28.6218 68.1325 28.6583C67.496 28.6411 66.8665 28.7942 66.3089 29.1017C65.8208 29.3796 65.4254 29.7949 65.1718 30.296C64.915 30.8135 64.7851 31.3847 64.7927 31.9624V39.114C64.7997 39.3386 64.7609 39.5622 64.6785 39.7713C64.5961 39.9803 64.4719 40.1704 64.3136 40.3298C63.9924 40.6464 63.5595 40.8239 63.1085 40.8239C62.6575 40.8239 62.2246 40.6464 61.9035 40.3298C61.7465 40.1694 61.6232 39.9792 61.5409 39.7704C61.4586 39.5616 61.4189 39.3384 61.4243 39.114V21.7713C61.4201 21.547 61.4603 21.3242 61.5426 21.1156C61.6248 20.9069 61.7474 20.7166 61.9035 20.5555C62.0634 20.3911 62.2547 20.2605 62.4659 20.1713C62.6772 20.0821 62.9042 20.0361 63.1336 20.0361C63.3629 20.0361 63.5899 20.0821 63.8012 20.1713C64.0124 20.2605 64.2037 20.3911 64.3636 20.5555C64.521 20.7156 64.6445 20.9058 64.7268 21.1147C64.8091 21.3235 64.8486 21.5468 64.8428 21.7713V28.7298L64.3636 28.6512C64.8023 27.8423 65.4155 27.1411 66.1587 26.5986C66.5989 26.2786 67.08 26.0188 67.589 25.8262C68.1459 25.6246 68.7347 25.5252 69.3269 25.533Z" fill="black"/>
<path d="M92.4409 33.3354C92.4708 34.7522 92.1175 36.1507 91.4182 37.3832C90.7651 38.5236 89.8196 39.4692 88.6791 40.1223C87.4947 40.7651 86.1685 41.1019 84.8208 41.1019C83.4732 41.1019 82.1469 40.7651 80.9625 40.1223C79.8203 39.4691 78.8725 38.5237 78.2163 37.3832C77.517 36.1507 77.1637 34.7522 77.1936 33.3354C77.1602 31.9178 77.5085 30.5173 78.202 29.2804C78.8597 28.1374 79.8069 27.1878 80.9482 26.527C82.1296 25.8747 83.457 25.5325 84.8065 25.5325C86.156 25.5325 87.4835 25.8747 88.6648 26.527C89.8096 27.1857 90.7596 28.1357 91.4182 29.2804C92.1167 30.5159 92.47 31.9165 92.4409 33.3354ZM89.0725 33.3354C89.0926 32.4711 88.8959 31.6154 88.5004 30.8466C88.1404 30.173 87.6071 29.6076 86.9556 29.2089C86.3057 28.8251 85.5648 28.6227 84.8101 28.6227C84.0554 28.6227 83.3145 28.8251 82.6646 29.2089C82.0131 29.6076 81.4798 30.173 81.1199 30.8466C80.7211 31.6143 80.5243 32.4707 80.5477 33.3354C80.5262 34.1885 80.7232 35.0329 81.1199 35.7884C81.4798 36.4621 82.0131 37.0275 82.6646 37.4261C83.3129 37.8143 84.0544 38.0193 84.8101 38.0193C85.5658 38.0193 86.3073 37.8143 86.9556 37.4261C87.6071 37.0275 88.1404 36.4621 88.5004 35.7884C88.8935 35.0316 89.0902 34.1881 89.0725 33.3354Z" fill="black"/>
<path d="M103.155 25.5329C104.401 25.5179 105.626 25.863 106.681 26.527C107.732 27.2109 108.583 28.1609 109.148 29.2804C109.776 30.533 110.088 31.9202 110.056 33.3211C110.087 34.7241 109.775 36.1134 109.148 37.3689C108.589 38.4858 107.745 39.4356 106.702 40.1223C105.682 40.7877 104.487 41.1338 103.269 41.1164C102.552 41.1223 101.84 40.9988 101.167 40.7516C100.538 40.5266 99.9452 40.211 99.4075 39.8148C98.9727 39.4935 98.5872 39.1104 98.2632 38.6777C98.0342 38.4009 97.8923 38.0624 97.8556 37.705L98.7209 37.3475V44.7208C98.727 44.9457 98.6884 45.1696 98.6074 45.3795C98.5264 45.5895 98.4045 45.7812 98.2489 45.9437C98.0929 46.1055 97.9048 46.233 97.6966 46.3179C97.4885 46.4029 97.265 46.4435 97.0403 46.4372C96.817 46.4428 96.5948 46.4033 96.3871 46.3209C96.1794 46.2386 95.9905 46.1152 95.8317 45.958C95.6736 45.7943 95.5504 45.6003 95.4693 45.3877C95.3882 45.175 95.3509 44.9482 95.3597 44.7208V27.5569C95.3536 27.3319 95.3922 27.108 95.4732 26.8981C95.5542 26.6882 95.6761 26.4965 95.8317 26.3339C96.154 26.0168 96.5881 25.8391 97.0403 25.8391C97.4925 25.8391 97.9266 26.0168 98.2489 26.3339C98.4045 26.4965 98.5264 26.6882 98.6074 26.8981C98.6884 27.108 98.727 27.3319 98.7209 27.5569V28.93L98.2489 28.6797C98.2824 28.3498 98.4202 28.0391 98.6423 27.7929C98.9486 27.4003 99.3071 27.0514 99.7079 26.7559C100.181 26.3971 100.704 26.1081 101.26 25.8977C101.864 25.661 102.506 25.5373 103.155 25.5329ZM102.733 28.6225C101.972 28.6075 101.225 28.8218 100.588 29.2375C99.9716 29.6564 99.478 30.2315 99.1572 30.9038C98.8029 31.6545 98.6267 32.4768 98.6423 33.3068C98.6313 34.134 98.8073 34.953 99.1572 35.7026C99.4713 36.3869 99.9657 36.9728 100.588 37.3975C101.224 37.8157 101.972 38.0326 102.733 38.0197C103.495 38.0376 104.244 37.8203 104.878 37.3975C105.499 36.9712 105.993 36.3858 106.309 35.7026C106.659 34.953 106.835 34.134 106.824 33.3068C106.839 32.4768 106.663 31.6545 106.309 30.9038C105.986 30.2326 105.493 29.658 104.878 29.2375C104.243 28.8172 103.494 28.6025 102.733 28.6225Z" fill="black"/>
<path d="M120.491 25.5904L114.426 39.8436C114.315 40.1728 114.105 40.46 113.825 40.666C113.572 40.8628 113.259 40.9686 112.938 40.9664C112.732 40.9816 112.524 40.9517 112.331 40.8788C112.137 40.806 111.961 40.6919 111.816 40.5445C111.57 40.2559 111.44 39.8864 111.451 39.5075C111.453 39.3254 111.481 39.1446 111.537 38.9711L118.524 22.1933C118.667 21.8376 118.917 21.5352 119.239 21.328C119.527 21.1221 119.881 21.0303 120.233 21.0705C120.571 21.0713 120.901 21.1761 121.177 21.3709C121.467 21.573 121.687 21.8605 121.806 22.1933L128.708 38.6421C128.794 38.8559 128.84 39.0838 128.844 39.3144C128.851 39.5265 128.817 39.7381 128.742 39.9368C128.667 40.1354 128.553 40.3172 128.408 40.4716C128.262 40.626 128.087 40.7499 127.893 40.836C127.699 40.9222 127.49 40.969 127.277 40.9736C126.946 40.9742 126.623 40.8634 126.362 40.6589C126.081 40.4415 125.864 40.1524 125.733 39.8221L119.704 25.7692L120.491 25.5904ZM115.306 36.4323L116.843 33.2069H124.438L124.975 36.4323H115.306Z" fill="black"/>
<path d="M137.153 25.5327C138.549 25.5198 139.909 25.9756 141.015 26.8272C141.44 27.1496 141.818 27.53 142.138 27.9571C142.364 28.2356 142.506 28.5732 142.546 28.9298L141.83 29.2945V27.242C141.824 27.0181 141.863 26.7952 141.944 26.5864C142.025 26.3777 142.147 26.1872 142.302 26.0262C142.627 25.7141 143.061 25.5399 143.511 25.5399C143.962 25.5399 144.395 25.7141 144.72 26.0262C144.878 26.1886 145.001 26.3814 145.082 26.5928C145.163 26.8043 145.2 27.03 145.192 27.2563V39.7288C145.26 41.1107 144.892 42.4791 144.14 43.6407C143.456 44.6162 142.494 45.3636 141.38 45.7862C139.75 46.4335 137.972 46.6142 136.245 46.3083C135.644 46.2153 135.072 46.1009 134.536 45.9721C134.117 45.8739 133.704 45.7522 133.299 45.6074C132.824 45.4319 132.416 45.1117 132.133 44.692C132.027 44.5204 131.961 44.3271 131.94 44.1266C131.919 43.926 131.943 43.7233 132.011 43.5334C132.064 43.3035 132.162 43.0866 132.301 42.8961C132.44 42.7055 132.617 42.5452 132.819 42.4249C133 42.3296 133.198 42.2739 133.402 42.2616C133.605 42.2492 133.809 42.2805 133.999 42.3534C134.185 42.4106 134.493 42.5179 134.929 42.6895C135.365 42.8612 135.83 43.0114 136.359 43.1544C136.802 43.2809 137.258 43.3506 137.718 43.3618C138.822 43.45 139.922 43.1517 140.829 42.5179C141.166 42.2346 141.433 41.8776 141.609 41.4745C141.785 41.0713 141.866 40.633 141.845 40.1936V37.7406L142.181 37.9909C142.147 38.3158 142.015 38.6226 141.802 38.8706C141.506 39.2583 141.157 39.6025 140.765 39.8932C140.288 40.2508 139.763 40.5397 139.206 40.7514C138.597 40.9878 137.949 41.1067 137.296 41.1019C136.034 41.1177 134.794 40.7728 133.721 40.1078C132.646 39.435 131.773 38.4835 131.196 37.3544C130.561 36.1113 130.242 34.7309 130.266 33.3352C130.239 31.9277 130.558 30.5352 131.196 29.2802C131.769 28.1573 132.631 27.2071 133.692 26.5268C134.728 25.8728 135.928 25.528 137.153 25.5327ZM137.69 28.6222C136.906 28.6035 136.135 28.8175 135.473 29.2373C134.833 29.6518 134.319 30.2329 133.985 30.9179C133.621 31.6708 133.44 32.499 133.456 33.3352C133.441 34.1597 133.623 34.976 133.985 35.7167C134.319 36.4017 134.833 36.9828 135.473 37.3973C136.134 37.8196 136.905 38.0362 137.69 38.0195C138.483 38.038 139.264 37.8215 139.935 37.3973C140.575 36.9828 141.089 36.4017 141.423 35.7167C141.782 34.9748 141.963 34.1594 141.952 33.3352C141.965 32.4994 141.784 31.6719 141.423 30.9179C141.089 30.2329 140.575 29.6518 139.935 29.2373C139.264 28.8152 138.483 28.6012 137.69 28.6222Z" fill="black"/>
<path d="M160.976 25.5329C161.198 25.5253 161.42 25.564 161.627 25.6465C161.834 25.7289 162.021 25.8534 162.177 26.0121C162.338 26.1732 162.463 26.3655 162.545 26.5772C162.628 26.7888 162.666 27.0152 162.657 27.2422V39.1139C162.664 39.3385 162.625 39.5621 162.542 39.7712C162.46 39.9802 162.336 40.1703 162.177 40.3297C161.856 40.6463 161.423 40.8238 160.972 40.8238C160.521 40.8238 160.088 40.6463 159.767 40.3297C159.609 40.1703 159.485 39.9802 159.402 39.7712C159.32 39.5621 159.281 39.3385 159.288 39.1139V37.7408L159.91 37.9911C159.873 38.3178 159.736 38.6251 159.517 38.8707C159.21 39.2586 158.851 39.6027 158.451 39.8934C157.965 40.2526 157.431 40.5415 156.864 40.7516C156.231 40.9912 155.559 41.11 154.883 41.1021C153.643 41.115 152.426 40.7698 151.378 40.108C150.32 39.429 149.462 38.4781 148.897 37.3546C148.27 36.1091 147.955 34.7296 147.981 33.3354C147.952 31.9294 148.266 30.5375 148.897 29.2804C149.456 28.1616 150.303 27.2115 151.35 26.527C152.371 25.8696 153.561 25.5241 154.775 25.5329C155.53 25.5248 156.28 25.6482 156.992 25.8977C157.62 26.1171 158.211 26.4306 158.745 26.8274C159.183 27.1444 159.571 27.5253 159.896 27.9573C160.122 28.2358 160.264 28.5734 160.304 28.93L159.288 29.2947V27.2422C159.282 27.0176 159.321 26.7941 159.403 26.5851C159.485 26.3761 159.609 26.186 159.767 26.0264C159.923 25.8643 160.111 25.7366 160.319 25.6516C160.527 25.5666 160.751 25.5262 160.976 25.5329ZM155.305 38.0197C156.066 38.0334 156.814 37.8165 157.45 37.3975C158.072 36.9786 158.566 36.3973 158.88 35.7169C159.237 34.9745 159.416 34.159 159.403 33.3354C159.418 32.5001 159.239 31.6727 158.88 30.9181C158.566 30.2376 158.072 29.6563 157.45 29.2375C156.813 28.8205 156.065 28.6061 155.305 28.6224C154.543 28.6034 153.795 28.818 153.159 29.2375C152.541 29.6604 152.047 30.2406 151.729 30.9181C151.376 31.6744 151.2 32.501 151.214 33.3354C151.201 34.1581 151.377 34.9728 151.729 35.7169C152.047 36.3944 152.541 36.9746 153.159 37.3975C153.794 37.819 154.543 38.0361 155.305 38.0197Z" fill="black"/>
<path d="M167.763 23.9881C167.293 24.0322 166.822 23.9244 166.418 23.6806C166.273 23.5405 166.162 23.369 166.094 23.1793C166.026 22.9896 166.002 22.7867 166.025 22.5864V22.0572C165.998 21.8506 166.024 21.6408 166.101 21.447C166.177 21.2532 166.301 21.0818 166.461 20.9487C166.866 20.7219 167.329 20.6199 167.791 20.6555C168.27 20.6112 168.75 20.7188 169.164 20.963C169.309 21.1031 169.42 21.2746 169.488 21.4643C169.557 21.654 169.58 21.8569 169.558 22.0572V22.5864C169.583 22.7916 169.558 22.9999 169.484 23.1931C169.411 23.3864 169.291 23.5587 169.136 23.6949C168.717 23.9264 168.239 24.0284 167.763 23.9881ZM169.493 39.1139C169.5 39.3378 169.462 39.5608 169.381 39.7696C169.299 39.9785 169.177 40.1689 169.021 40.3296C168.699 40.6467 168.265 40.8244 167.813 40.8244C167.36 40.8244 166.926 40.6467 166.604 40.3296C166.447 40.1693 166.324 39.979 166.241 39.7702C166.159 39.5614 166.119 39.3382 166.125 39.1139V27.5282C166.12 27.3028 166.16 27.0788 166.242 26.8689C166.324 26.659 166.447 26.4674 166.604 26.3053C166.926 25.9882 167.36 25.8105 167.813 25.8105C168.265 25.8105 168.699 25.9882 169.021 26.3053C169.177 26.4678 169.299 26.6596 169.38 26.8695C169.461 27.0794 169.499 27.3033 169.493 27.5282V39.1139Z" fill="black"/>
<path d="M180.936 25.5327C182.063 25.4584 183.181 25.7713 184.105 26.4195C184.831 27.0139 185.352 27.8222 185.592 28.7295C185.874 29.7762 186.011 30.8566 186 31.9406V39.1137C186.005 39.3381 185.965 39.5613 185.883 39.7701C185.801 39.9789 185.678 40.1691 185.521 40.3295C185.365 40.4913 185.176 40.6187 184.968 40.7037C184.76 40.7886 184.537 40.8293 184.312 40.8229C184.088 40.83 183.866 40.7897 183.658 40.7047C183.451 40.6197 183.265 40.4918 183.11 40.3295C182.952 40.1701 182.828 39.98 182.746 39.771C182.663 39.5619 182.624 39.3383 182.631 39.1137V31.9621C182.639 31.3978 182.559 30.8357 182.395 30.2957C182.242 29.817 181.942 29.399 181.537 29.1014C181.008 28.7756 180.391 28.6208 179.771 28.658C179.111 28.6373 178.457 28.7902 177.875 29.1014C177.38 29.3835 176.972 29.7968 176.695 30.2957C176.42 30.8073 176.279 31.3809 176.288 31.9621V39.1137C176.295 39.3376 176.256 39.5606 176.175 39.7695C176.094 39.9783 175.972 40.1687 175.816 40.3295C175.493 40.6466 175.059 40.8243 174.607 40.8243C174.155 40.8243 173.721 40.6466 173.399 40.3295C173.242 40.1687 173.12 39.9783 173.039 39.7695C172.958 39.5606 172.92 39.3376 172.927 39.1137V27.528C172.92 27.3031 172.959 27.0792 173.04 26.8693C173.121 26.6594 173.243 26.4676 173.399 26.3051C173.721 25.988 174.155 25.8103 174.607 25.8103C175.059 25.8103 175.493 25.988 175.816 26.3051C175.971 26.4676 176.093 26.6594 176.174 26.8693C176.255 27.0792 176.294 27.3031 176.288 27.528V28.7295L175.866 28.6508C176.066 28.2826 176.306 27.9373 176.581 27.621C176.919 27.2425 177.296 26.8999 177.704 26.5983C178.144 26.2775 178.625 26.0176 179.134 25.8259C179.713 25.6241 180.323 25.5249 180.936 25.5327Z" fill="black"/>
</g>
<defs>
<clipPath id="clip0_1843_2367">
<rect width="186" height="29.758" fill="white" transform="translate(0 17.1211)"/>
</clipPath>
</defs>
</svg>
